{
  "accessors": [
    {
      "bufferView": 2,
      "componentType": 5126,
      "count": 12462,
      "max": [
        90.66434478759766,
        87.98945617675781,
        82.00504302978516
      ],
      "min": [
        -91.7711410522461,
        -0.7114867568016052,
        -92.97959899902344
      ],
      "type": "VEC3"
    },
    {
      "bufferView": 2,
      "byteOffset": 149544,
      "componentType": 5126,
      "count": 12462,
      "max": [
        0.9987702369689941,
        0.9993232488632202,
        0.9997380375862122
      ],
      "min": [
        -0.9997351765632629,
        -0.9998756647109985,
        -0.9994161128997803
      ],
      "type": "VEC3"
    },
    {
      "bufferView": 1,
      "componentType": 5126,
      "count": 12462,
      "max": [
        1.0,
        1.0
      ],
      "min": [
        0.0,
        0.0
      ],
      "type": "VEC2"
    },
    {
      "bufferView": 0,
      "componentType": 5125,
      "count": 19758,
      "type": "SCALAR"
    },
    {
      "bufferView": 2,
      "byteOffset": 299088,
      "componentType": 5126,
      "count": 528,
      "max": [
        15.091809272766113,
        56.93260192871094,
        34.36479568481445
      ],
      "min": [
        -15.449545860290527,
        50.14657974243164,
        24.207225799560547
      ],
      "type": "VEC3"
    },
    {
      "bufferView": 2,
      "byteOffset": 305424,
      "componentType": 5126,
      "count": 528,
      "max": [
        0.9780804514884949,
        0.9998255372047424,
        0.8913408517837524
      ],
      "min": [
        -0.978080689907074,
        -0.9997210502624512,
        -0.8782026171684265
      ],
      "type": "VEC3"
    },
    {
      "bufferView": 1,
      "byteOffset": 99696,
      "componentType": 5126,
      "count": 528,
      "max": [
        0.3870820105075836,
        0.25266900658607483
      ],
      "min": [
        0.31481099128723145,
        0.017566999420523643
      ],
      "type": "VEC2"
    },
    {
      "bufferView": 0,
      "byteOffset": 79032,
      "componentType": 5125,
      "count": 720,
      "type": "SCALAR"
    }
  ],
  "asset": {
    "extras": {
      "author": "PRINCE.JACK (https://sketchfab.com/J.A.C.K)",
      "license": "CC-BY-4.0 (http://creativecommons.org/licenses/by/4.0/)",
      "source": "https://sketchfab.com/3d-models/low-poly-ant-model-3635180b9b7d44dba5f7eb007693ded5",
      "title": "Low poly Ant Model"
    },
    "generator": "Sketchfab-12.68.0",
    "version": "2.0"
  },
  "bufferViews": [
    {
      "buffer": 0,
      "byteLength": 81912,
      "name": "floatBufferViews",
      "target": 34963
    },
    {
      "buffer": 0,
      "byteLength": 103920,
      "byteOffset": 81912,
      "byteStride": 8,
      "name": "floatBufferViews",
      "target": 34962
    },
    {
      "buffer": 0,
      "byteLength": 311760,
      "byteOffset": 185832,
      "byteStride": 12,
      "name": "floatBufferViews",
      "target": 34962
    }
  ],
  "buffers": [
    {
      "byteLength": 497592,
      "uri": "scene.bin"
    }
  ],
  "extensionsRequired": [
    "KHR_materials_pbrSpecularGlossiness"
  ],
  "extensionsUsed": [
    "KHR_materials_pbrSpecularGlossiness"
  ],
  "materials": [
    {
      "doubleSided": true,
      "extensions": {
        "KHR_materials_pbrSpecularGlossiness": {
          "diffuseFactor": [
            0.01900434124363862,
            0.01900434124363862,
            0.01900434124363862,
            1.0
          ],
          "glossinessFactor": 0.5124445944220491,
          "specularFactor": [
            0.005572829822086463,
            0.005572829822086463,
            0.005572829822086463
          ]
        }
      },
      "name": "Body_MAT"
    },
    {
      "doubleSided": true,
      "extensions": {
        "KHR_materials_pbrSpecularGlossiness": {
          "diffuseFactor": [
            0.0,
            0.0,
            0.0,
            1.0
          ],
          "glossinessFactor": 1.0,
          "specularFactor": [
            0.008959033215757944,
            0.008959033215757944,
            0.008959033215757944
          ]
        }
      },
      "name": "Body_Eye_MAT"
    }
  ],
  "meshes": [
    {
      "name": "Ant_Body_MAT_0",
      "primitives": [
        {
          "attributes": {
            "NORMAL": 1,
            "POSITION": 0,
            "TEXCOORD_0": 2
          },
          "indices": 3,
          "material": 0,
          "mode": 4
        }
      ]
    },
    {
      "name": "Ant_Body_Eye_MAT_0",
      "primitives": [
        {
          "attributes": {
            "NORMAL": 5,
            "POSITION": 4,
            "TEXCOORD_0": 6
          },
          "indices": 7,
          "material": 1,
          "mode": 4
        }
      ]
    }
  ],
  "nodes": [
    {
      "children": [
        1
      ],
      "matrix": [
        1.0,
        0.0,
        0.0,
        0.0,
        0.0,
        2.220446049250313e-16,
        -1.0,
        0.0,
        0.0,
        1.0,
        2.220446049250313e-16,
        0.0,
        0.0,
        0.0,
        0.0,
        1.0
      ],
      "name": "Sketchfab_model"
    },
    {
      "children": [
        2
      ],
      "matrix": [
        0.30480000376701355,
        0.0,
        0.0,
        0.0,
        0.0,
        0.0,
        0.30480000376701355,
        0.0,
        0.0,
        -0.30480000376701355,
        0.0,
        0.0,
        0.0,
        0.0,
        0.0,
        1.0
      ],
      "name": "063ebf33750841b69ef163c129046921.fbx"
    },
    {
      "children": [
        3
      ],
      "name": "RootNode"
    },
    {
      "children": [
        4,
        5
      ],
      "matrix": [
        0.03280840069055557,
        0.0,
        0.0,
        0.0,
        0.0,
        0.03280840069055557,
        0.0,
        0.0,
        0.0,
        0.0,
        0.03280840069055557,
        0.0,
        0.0,
        0.0,
        0.0,
        1.0
      ],
      "name": "Ant"
    },
    {
      "mesh": 0,
      "name": "Ant_Body_MAT_0"
    },
    {
      "mesh": 1,
      "name": "Ant_Body_Eye_MAT_0"
    }
  ],
  "scene": 0,
  "scenes": [
    {
      "name": "Sketchfab_Scene",
      "nodes": [
        0
      ]
    }
  ]
}
