{
  "accessors": [
    {
      "bufferView": 2,
      "componentType": 5126,
      "count": 1879,
      "max": [
        0.9006779193878174,
        0.88520348072052,
        0.6967734694480896
      ],
      "min": [
        -0.9021275043487549,
        -0.8851445317268372,
        -0.05453622341156006
      ],
      "type": "VEC3"
    },
    {
      "bufferView": 2,
      "byteOffset": 22548,
      "componentType": 5126,
      "count": 1879,
      "max": [
        0.9999984502792358,
        0.9999997019767761,
        0.9999998211860657
      ],
      "min": [
        -0.9999993443489075,
        -0.9999992847442627,
        -0.9999998211860657
      ],
      "type": "VEC3"
    },
    {
      "bufferView": 3,
      "componentType": 5126,
      "count": 1879,
      "max": [
        0.9999998807907104,
        1.0,
        0.9999999403953552,
        1.0
      ],
      "min": [
        -0.999998927116394,
        -0.9999997615814209,
        -1.0,
        1.0
      ],
      "type": "VEC4"
    },
    {
      "bufferView": 1,
      "componentType": 5126,
      "count": 1879,
      "max": [
        0.9942732453346252,
        0.990312933921814
      ],
      "min": [
        0.004996471107006073,
        0.004973294213414192
      ],
      "type": "VEC2"
    },
    {
      "bufferView": 1,
      "byteOffset": 15032,
      "componentType": 5126,
      "count": 1879,
      "max": [
        0.9942732453346252,
        0.990312933921814
      ],
      "min": [
        0.004996471107006073,
        0.004973294213414192
      ],
      "type": "VEC2"
    },
    {
      "bufferView": 1,
      "byteOffset": 30064,
      "componentType": 5126,
      "count": 1879,
      "max": [
        0.9942732453346252,
        0.990312933921814
      ],
      "min": [
        0.004996471107006073,
        0.004973294213414192
      ],
      "type": "VEC2"
    },
    {
      "bufferView": 0,
      "componentType": 5125,
      "count": 5142,
      "type": "SCALAR"
    }
  ],
  "asset": {
    "extras": {
      "author": "Mark Peters (https://sketchfab.com/mark-peters)",
      "license": "CC-BY-4.0 (http://creativecommons.org/licenses/by/4.0/)",
      "source": "https://sketchfab.com/3d-models/wooden-picnic-table-4096px2-c7d39c0bcee04553894d0de081d3aa9c",
      "title": "Wooden Picnic Table - 4096px²"
    },
    "generator": "Sketchfab-17.3.0",
    "version": "2.0"
  },
  "bufferViews": [
    {
      "buffer": 0,
      "byteLength": 20568,
      "name": "floatBufferViews",
      "target": 34963
    },
    {
      "buffer": 0,
      "byteLength": 45096,
      "byteOffset": 20568,
      "byteStride": 8,
      "name": "floatBufferViews",
      "target": 34962
    },
    {
      "buffer": 0,
      "byteLength": 45096,
      "byteOffset": 65664,
      "byteStride": 12,
      "name": "floatBufferViews",
      "target": 34962
    },
    {
      "buffer": 0,
      "byteLength": 30064,
      "byteOffset": 110760,
      "byteStride": 16,
      "name": "floatBufferViews",
      "target": 34962
    }
  ],
  "buffers": [
    {
      "byteLength": 140824,
      "uri": "scene.bin"
    }
  ],
  "images": [
    {
      "uri": "textures/PicnicTable_MTL_baseColor.png"
    },
    {
      "uri": "textures/PicnicTable_MTL_metallicRoughness.png"
    },
    {
      "uri": "textures/PicnicTable_MTL_normal.png"
    }
  ],
  "materials": [
    {
      "doubleSided": true,
      "name": "PicnicTable_MTL",
      "normalTexture": {
        "index": 2
      },
      "pbrMetallicRoughness": {
        "baseColorTexture": {
          "index": 0
        },
        "metallicRoughnessTexture": {
          "index": 1
        }
      }
    }
  ],
  "meshes": [
    {
      "name": "PicnicTable_PicnicTable_MTL_0",
      "primitives": [
        {
          "attributes": {
            "NORMAL": 1,
            "POSITION": 0,
            "TANGENT": 2,
            "TEXCOORD_0": 3,
            "TEXCOORD_1": 4,
            "TEXCOORD_2": 5
          },
          "indices": 6,
          "material": 0,
          "mode": 4
        }
      ]
    }
  ],
  "nodes": [
    {
      "children": [
        1
      ],
      "matrix": [
        1.0,
        0.0,
        0.0,
        0.0,
        0.0,
        2.220446049250313e-16,
        -1.0,
        0.0,
        0.0,
        1.0,
        2.220446049250313e-16,
        0.0,
        0.0,
        0.0,
        0.0,
        1.0
      ],
      "name": "Sketchfab_model"
    },
    {
      "children": [
        2
      ],
      "matrix": [
        0.009999999776482582,
        0.0,
        0.0,
        0.0,
        0.0,
        0.0,
        0.009999999776482582,
        0.0,
        0.0,
        -0.009999999776482582,
        0.0,
        0.0,
        0.0,
        0.0,
        0.0,
        1.0
      ],
      "name": "92de11ad0fc64015b674a12d9f243f20.fbx"
    },
    {
      "children": [
        3
      ],
      "name": "RootNode"
    },
    {
      "children": [
        4
      ],
      "matrix": [
        100.0,
        0.0,
        0.0,
        0.0,
        0.0,
        -1.629206793918314e-05,
        -99.99999999999868,
        0.0,
        0.0,
        99.99999999999868,
        -1.629206793918314e-05,
        0.0,
        0.0,
        0.0,
        0.0,
        1.0
      ],
      "name": "PicnicTable"
    },
    {
      "mesh": 0,
      "name": "PicnicTable_PicnicTable_MTL_0"
    }
  ],
  "samplers": [
    {
      "magFilter": 9729,
      "minFilter": 9987,
      "wrapS": 10497,
      "wrapT": 10497
    }
  ],
  "scene": 0,
  "scenes": [
    {
      "name": "Sketchfab_Scene",
      "nodes": [
        0
      ]
    }
  ],
  "textures": [
    {
      "sampler": 0,
      "source": 0
    },
    {
      "sampler": 0,
      "source": 1
    },
    {
      "sampler": 0,
      "source": 2
    }
  ]
}
